Coordinates
version=1
nRows=13
nColumns=22
inDegrees=yes

Units are S.I. units (second, meters, Newtons, ...)
If the header above contains a line with 'inDegrees', this indicates whether rotational values are in degrees (yes) or radians (no).

endheader
time	pelvis_tilt	pelvis_list	pelvis_rotation	pelvis_tx	pelvis_ty	pelvis_tz	hip_flexion_r	hip_adduction_r	hip_rotation_r	knee_angle_r	ankle_angle_r	subtalar_angle_r	hip_flexion_l	hip_adduction_l	hip_rotation_l	knee_angle_l	ankle_angle_l	subtalar_angle_l	lumbar_extension	lumbar_bending	lumbar_rotation
      5.63000000	     -2.61306546	     -2.68973566	    -98.23728496	      0.96110180	      1.06531162	      0.51055314	     -1.19475399	     13.27155247	    -13.89790002	     -8.96124398	     11.33656204	    -12.38264028	     14.93820470	     -9.15273368	      3.51250393	    -55.63397776	      5.40325401	      2.89977939	     -5.00204880	      2.78392942	     -3.49459941
      5.64000000	     -2.52743993	     -2.59315405	    -99.58305970	      0.95836203	      1.06546220	      0.51691592	     -1.69048208	     13.17704292	    -12.53395494	     -8.91576907	     11.42529392	    -12.36346265	     15.69870818	     -9.00849655	      3.70778534	    -54.44787947	      6.29256728	      2.49890706	     -4.97083520	      2.62235330	     -3.03751325
      5.65000000	     -2.43067877	     -2.54174975	   -100.94005571	      0.95565246	      1.06566579	      0.52320642	     -2.25044481	     13.04789314	    -11.10801246	     -8.82598845	     11.54774669	    -12.40384891	     16.36274444	     -8.81754305	      3.91819987	    -53.15084759	      6.94305712	      2.00801048	     -4.98164050	      2.44967608	     -2.58956970
      5.66000000	     -2.31543256	     -2.43976281	   -102.31247149	      0.95301550	      1.06574908	      0.52931681	     -2.67774445	     12.87392199	     -9.74589050	     -8.85434076	     11.67141461	    -12.40480360	     17.05277361	     -8.59357564	      4.14721329	    -51.78399589	      7.56494519	      1.72076911	     -4.93864873	      2.28389914	     -2.14497579
      5.67000000	     -2.19858655	     -2.40638804	   -103.69073896	      0.95040982	      1.06591387	      0.53539614	     -3.18693556	     12.66681142	     -8.35755072	     -8.85065774	     11.82481014	    -12.47640656	     17.62004988	     -8.33387441	      4.38839898	    -50.32747075	      8.01316737	      1.37024428	     -4.96174961	      2.10974149	     -1.71256121
      5.68000000	     -2.04516685	     -2.29962762	   -105.05893663	      0.94788291	      1.06592533	      0.54138647	     -3.55043627	     12.41392635	     -7.04874879	     -8.93124069	     12.01595189	    -12.46348500	     18.24590176	     -8.03307627	      4.66597731	    -48.81980810	      8.41551522	      1.26529665	     -4.88397292	      1.92655756	     -1.28529399
      5.69000000	     -1.87975852	     -2.23405704	   -106.41910967	      0.94540065	      1.06596872	      0.54737170	     -3.93743341	     12.12214221	     -5.75286884	     -9.02216921	     12.22076694	    -12.46831448	     18.78618770	     -7.70098304	      4.95323742	    -47.24100996	      8.73442916	      1.22969413	     -4.83498451	      1.73211279	     -0.88783670
      5.70000000	     -1.69717385	     -2.19466440	   -107.75788640	      0.94296084	      1.06601872	      0.55339645	     -4.33082795	     11.79002159	     -4.48717903	     -9.11991687	     12.44809230	    -12.47361431	     19.25531695	     -7.33213679	      5.27014453	    -45.59088992	      8.99547199	      1.30256537	     -4.78625636	      1.51820981	     -0.52065096
      5.71000000	     -1.49605812	     -2.18051375	   -109.07121801	      0.94058073	      1.06606794	      0.55944716	     -4.72040320	     11.41595115	     -3.25128031	     -9.23365077	     12.69263352	    -12.47162469	     19.65911286	     -6.92961104	      5.60872388	    -43.87454928	      9.19743150	      1.49738453	     -4.74140693	      1.28816372	     -0.18475934
      5.72000000	     -1.31010843	     -2.24205691	   -110.35046068	      0.93825124	      1.06619666	      0.56555966	     -5.19052335	     11.01814913	     -2.02523072	     -9.32184842	     12.94413710	    -12.48588891	     19.93065782	     -6.50956377	      5.98151831	    -42.08850996	      9.36182293	      1.90212935	     -4.76531594	      1.05756653	      0.11231785
      5.73000000	     -1.08483214	     -2.26921760	   -111.59116740	      0.93598830	      1.06620478	      0.57167336	     -5.56000547	     10.58068209	     -0.85495326	     -9.46920508	     13.21948850	    -12.45927304	     20.21760521	     -6.05851645	      6.38277767	    -40.25446583	      9.44145478	      2.34308475	     -4.71736635	      0.80702483	      0.35284909
      5.74000000	     -0.85492167	     -2.31513447	   -112.78716578	      0.93377416	      1.06617513	      0.57780483	     -5.91709879	     10.12448680	      0.27390101	     -9.63379985	     13.50270702	    -12.42945743	     20.45344307	     -5.59951490	      6.80795200	    -38.37283172	      9.45043241	      2.86556692	     -4.67175990	      0.55383306	      0.53440265
      5.75000000	     -0.63112927	     -2.36833552	   -113.93931374	      0.93158335	      1.06608246	      0.58393747	     -6.24992031	      9.66800920	      1.34638905	     -9.82545487	     13.79717002	    -12.40021372	     20.65324803	     -5.15622869	      7.23984502	    -36.45692908	      9.39063752	      3.43335627	     -4.62276740	      0.30910302	      0.66302038
